<?xml version="1.0" encoding="utf-8"?>
<!-- Svg Vector Icons : http://www.onlinewebfonts.com/icon -->
<!DOCTYPE svg PUBLIC "-//W3C//DTD SVG 1.1//EN" "http://www.w3.org/Graphics/SVG/1.1/DTD/svg11.dtd">
<svg version="1.1" xmlns="http://www.w3.org/2000/svg" xmlns:xlink="http://www.w3.org/1999/xlink" x="0px" y="0px" viewBox="0 0 1000 1000" enable-background="new 0 0 1000 1000" xml:space="preserve">
<metadata> Svg Vector Icons : http://www.onlinewebfonts.com/icon </metadata>
<g><path d="M879.2,50.8c3.5-3.5,5.1-8.6,4.3-13.5c-0.9-4.9-4-9.1-8.6-11.2C804.7-7,721.3,7.5,666.5,62.6c-52.1,52.4-70.2,134.7-46,203.5L266.8,619.8c-19.2-6.9-39.8-10.3-61.2-10.3c-52.5,0-103.5,20.9-139.8,57.4C11.2,721.8-4.2,803,26.6,873.7c2,4.7,6.2,8,11.2,9c5,0.9,10.1-0.6,13.7-4.3l107-107.6c7.1-7.1,18.4-8.1,24.3-2.1l46.2,48.3c6.7,6.8,6.4,17.2-0.7,24.4L121.7,948.8c-3.5,3.5-5.1,8.6-4.2,13.5c0.9,4.9,4,9.1,8.6,11.2c25.4,12,52.1,18,79.4,18c48.2,0,94-19.4,129-54.6c52.1-52.4,70.2-134.6,45.9-203.4l353.7-353.8c19.3,6.9,39.8,10.3,61.2,10.3c52.5,0,103.5-20.9,139.8-57.4c54.6-54.9,70-136.1,39.3-206.8c-2-4.7-6.2-8-11.2-9c-4.9-0.9-10.1,0.6-13.7,4.3l-107,107.6c-6.6,6.6-17.8,6.6-24.6-0.3l-46-46c-6.9-7-6.9-17.4,0-24.3L879.2,50.8L879.2,50.8z M750.2,204.1l46,46c18.4,18.5,49.8,18.5,68,0.3L954,160c14.4,53.4-0.5,110.6-40.6,151c-30.6,30.7-73.5,48.3-118,48.3c-20.9,0-40.8-3.9-59-11.6c-5.8-2.5-12.4-1.1-16.8,3.2L351.7,718.9c-4.4,4.4-5.7,11-3.3,16.8c24.6,58.6,9.6,134.1-35.7,179.7c-40.5,40.7-99.4,55.2-152.8,38.6l90.2-90.7c19-19.2,19.3-48.9,0.9-67.4l-46.2-48.3c-17.8-17.9-49.5-16.8-68,1.9L47,839.6c-14.4-53.4,0.5-110.6,40.6-151c30.6-30.8,73.5-48.3,118-48.3c20.9,0,40.8,3.9,59,11.7c5.7,2.5,12.4,1.1,16.8-3.3l367.9-367.9c4.4-4.4,5.7-11,3.3-16.8c-24.6-58.6-9.6-134.2,35.7-179.7c40.5-40.7,99.4-55.1,152.7-38.6l-90.7,90.8C731.3,155.4,731.3,185.1,750.2,204.1L750.2,204.1z M905.4,948.8c-6.8,6.8-18.5,6.8-25.4-0.1L572.6,642.2c-6-5.9-15.7-5.9-21.7,0.1c-6,6-5.9,15.7,0,21.7l307.5,306.5c9.2,9.2,21.4,14.3,34.4,14.3l0,0c13,0,25.2-5.1,34.6-14.5l43.8-45.8c18.9-18.9,18.9-48.7,0-67.6L664.6,550.2c-6-6-15.7-6-21.7,0c-6,6-6,15.7,0,21.7l306.5,306.5c7,7.1,7,17.3-0.2,24.6L905.4,948.8L905.4,948.8z M189.4,105.7l-92-92c-6-6-15.7-6-21.7,0L14.5,75.1c-6,6-6,15.7,0,21.7l92,92c3,3,6.9,4.5,10.8,4.5s7.8-1.5,10.9-4.5l19.8-19.8l234.4,234.4c3,3,6.9,4.5,10.9,4.5c3.9,0,7.8-1.5,10.9-4.5c6-6,6-15.7,0-21.7L169.6,147.2l19.8-19.8C195.4,121.4,195.4,111.7,189.4,105.7L189.4,105.7z M117.3,156.2L47,85.9l39.6-39.6l70.3,70.3L117.3,156.2L117.3,156.2z"/></g>
</svg>