<svg width="16" height="16" viewBox="0 0 16 16" fill="none" xmlns="http://www.w3.org/2000/svg">
<path d="M8.30005 0.5C4.15478 0.5 0.800049 3.8544 0.800049 8C0.800049 12.1453 4.15445 15.5 8.30005 15.5C12.4453 15.5 15.8 12.1456 15.8 8C15.8 3.85473 12.4456 0.5 8.30005 0.5ZM5.39808 2.0455C5.17111 2.66363 4.9806 3.29199 4.82682 3.92914C4.37737 3.79259 3.93525 3.62885 3.50134 3.43807C4.05077 2.86083 4.69103 2.39082 5.39808 2.0455ZM2.91933 4.13984C3.48098 4.39994 4.05578 4.61738 4.64204 4.79179C4.47194 5.69979 4.37468 6.62396 4.35159 7.56055H1.69366C1.77461 6.31716 2.19833 5.14033 2.91933 4.13984ZM2.91933 11.8602C2.19833 10.8597 1.77461 9.68284 1.69366 8.43945H4.35159C4.37468 9.37605 4.47194 10.3002 4.64204 11.2082C4.05578 11.3826 3.48101 11.6001 2.91933 11.8602ZM3.50134 12.562C3.93525 12.3712 4.37734 12.2074 4.82682 12.0709C4.98063 12.708 5.17111 13.3364 5.39808 13.9545C4.69138 13.6094 4.05106 13.1395 3.50134 12.562ZM7.8606 14.6064C7.39905 14.5764 6.94662 14.4993 6.50898 14.3771C6.16138 13.5533 5.88394 12.7086 5.67701 11.847C6.38945 11.6877 7.11839 11.5946 7.8606 11.5682V14.6064ZM7.8606 10.6888C7.05646 10.7154 6.2667 10.815 5.49484 10.9869C5.3415 10.1511 5.25314 9.30084 5.23079 8.43945H7.8606V10.6888ZM7.8606 7.56055H5.23079C5.25314 6.69916 5.3415 5.84894 5.49484 5.01312C6.2667 5.18504 7.05646 5.28465 7.8606 5.31122V7.56055ZM7.8606 4.43179C7.11839 4.40545 6.38945 4.31231 5.67701 4.15303C5.88394 3.29138 6.16138 2.44669 6.50898 1.62286C6.94662 1.50069 7.39905 1.42364 7.8606 1.39361V4.43179ZM13.6808 4.13984C14.4018 5.14033 14.8255 6.31716 14.9064 7.56055H12.2485C12.2254 6.62396 12.1282 5.69979 11.9581 4.79179C12.5443 4.61738 13.1191 4.39994 13.6808 4.13984ZM13.0988 3.43804C12.6648 3.62885 12.2228 3.79259 11.7733 3.92911C11.6195 3.29196 11.429 2.6636 11.202 2.04547C11.9087 2.39062 12.549 2.86054 13.0988 3.43804ZM8.7395 1.39361C9.20105 1.42364 9.65348 1.50069 10.0911 1.62286C10.4387 2.44669 10.7162 3.29138 10.9231 4.15303C10.2106 4.31231 9.48171 4.40545 8.7395 4.43179V1.39361ZM8.7395 5.31122C9.54364 5.28465 10.3334 5.18504 11.1053 5.01312C11.2586 5.84894 11.347 6.69916 11.3693 7.56055H8.7395V5.31122ZM10.0911 14.3771C9.65348 14.4993 9.20105 14.5764 8.7395 14.6064V11.5682C9.48171 11.5946 10.2106 11.6877 10.9231 11.847C10.7161 12.7086 10.4387 13.5533 10.0911 14.3771ZM8.7395 10.6888V8.43945H11.3693C11.347 9.30084 11.2586 10.1511 11.1053 10.9869C10.3334 10.815 9.54364 10.7154 8.7395 10.6888ZM11.202 13.9545C11.429 13.3364 11.6195 12.708 11.7733 12.0709C12.2227 12.2074 12.6648 12.3712 13.0988 12.5619C12.5493 13.1392 11.9091 13.6092 11.202 13.9545ZM13.6808 11.8602C13.1191 11.6001 12.5443 11.3826 11.9581 11.2082C12.1282 10.3002 12.2254 9.37605 12.2485 8.43945H14.9064C14.8255 9.68284 14.4018 10.8597 13.6808 11.8602Z" fill="white"/>
</svg>
